<?xml version="1.0" standalone="no"?>
<!DOCTYPE svg PUBLIC "-//W3C//DTD SVG 20010904//EN"
 "http://www.w3.org/TR/2001/REC-SVG-20010904/DTD/svg10.dtd">
<svg version="1.0" xmlns="http://www.w3.org/2000/svg"
 width="50.000000pt" height="50.000000pt" viewBox="0 0 50.000000 50.000000"
 preserveAspectRatio="xMidYMid meet">

<g transform="translate(0.000000,50.000000) scale(0.100000,-0.100000)"
fill="#000000" stroke="none">
<path d="M49 431 l-29 -29 0 -157 0 -157 29 -29 29 -29 172 0 172 0 29 29 29
29 0 157 0 157 -29 29 -29 29 -172 0 -172 0 -29 -29z m391 -11 c18 -18 20 -33
20 -140 0 -167 9 -160 -210 -160 -219 0 -210 -7 -210 160 0 167 -9 160 210
160 157 0 172 -2 190 -20z m-190 -320 c134 0 170 3 188 16 21 14 22 14 22 -5
0 -12 -9 -30 -20 -41 -18 -18 -33 -20 -190 -20 -157 0 -172 2 -190 20 -11 11
-20 29 -20 41 0 19 1 19 22 5 18 -13 54 -16 188 -16z"/>
<path d="M140 280 c0 -49 1 -50 30 -50 17 0 30 5 30 10 0 6 -9 10 -20 10 -11
0 -20 5 -20 10 0 6 9 10 20 10 11 0 20 5 20 10 0 6 -9 10 -20 10 -11 0 -20 5
-20 10 0 6 9 10 20 10 11 0 20 5 20 10 0 6 -13 10 -30 10 -29 0 -30 -1 -30
-50z"/>
<path d="M230 296 c-9 -12 -7 -17 9 -28 28 -17 27 -31 -1 -23 -18 6 -20 4 -12
-5 16 -16 48 -9 52 11 1 9 -7 21 -20 27 l-23 11 23 0 c13 1 20 5 17 11 -9 14
-31 12 -45 -4z"/>
<path d="M311 296 c-21 -25 -10 -61 18 -61 13 0 27 7 29 15 4 12 3 13 -10 3
-17 -15 -28 -7 -28 20 0 15 5 18 21 14 13 -3 19 -1 16 6 -6 18 -32 20 -46 3z"/>
</g>
</svg>
