<?xml version="1.0" standalone="no"?>
<!DOCTYPE svg PUBLIC "-//W3C//DTD SVG 20010904//EN"
 "http://www.w3.org/TR/2001/REC-SVG-20010904/DTD/svg10.dtd">
<svg version="1.0" xmlns="http://www.w3.org/2000/svg"
 width="50.000000pt" height="50.000000pt" viewBox="0 0 50.000000 50.000000"
 preserveAspectRatio="xMidYMid meet">

<g transform="translate(0.000000,50.000000) scale(0.100000,-0.100000)"
fill="#000000" stroke="none">
<path d="M29 431 l-29 -29 0 -152 0 -152 29 -29 29 -29 192 0 192 0 29 29 29
29 0 152 0 152 -29 29 -29 29 -192 0 -192 0 -29 -29z m428 -13 c22 -21 23 -28
23 -167 0 -202 13 -191 -229 -191 -244 0 -231 -10 -231 189 0 202 -13 191 229
191 176 0 186 -1 208 -22z"/>
<path d="M240 310 c0 -89 0 -90 -25 -90 -32 0 -31 -7 5 -50 l30 -35 30 35 c36
43 37 50 5 50 -25 0 -25 1 -25 90 0 53 -4 90 -10 90 -6 0 -10 -37 -10 -90z"/>
<path d="M170 110 c0 -6 33 -10 80 -10 47 0 80 4 80 10 0 6 -33 10 -80 10 -47
0 -80 -4 -80 -10z"/>
</g>
</svg>
