<?xml version="1.0" standalone="no"?>
<!DOCTYPE svg PUBLIC "-//W3C//DTD SVG 20010904//EN"
 "http://www.w3.org/TR/2001/REC-SVG-20010904/DTD/svg10.dtd">
<svg version="1.0" xmlns="http://www.w3.org/2000/svg"
 width="50.000000pt" height="50.000000pt" viewBox="0 0 50.000000 50.000000"
 preserveAspectRatio="xMidYMid meet">

<g transform="translate(0.000000,50.000000) scale(0.100000,-0.100000)"
fill="#000000" stroke="none">
<path d="M29 431 l-29 -29 0 -152 0 -152 29 -29 29 -29 192 0 192 0 29 29 29
29 0 152 0 152 -29 29 -29 29 -192 0 -192 0 -29 -29z m428 -13 c22 -21 23 -28
23 -167 0 -202 13 -191 -229 -191 -244 0 -231 -10 -231 189 0 202 -13 191 229
191 176 0 186 -1 208 -22z"/>
<path d="M170 390 c0 -6 33 -10 80 -10 47 0 80 4 80 10 0 6 -33 10 -80 10 -47
0 -80 -4 -80 -10z"/>
<path d="M216 326 c-32 -43 -32 -46 -1 -46 25 0 25 -1 25 -90 0 -53 4 -90 10
-90 6 0 10 37 10 90 0 89 0 90 25 90 14 0 25 3 25 6 0 10 -52 74 -60 74 -4 0
-19 -15 -34 -34z"/>
</g>
</svg>
